<svg width="100%" height="100%" viewBox="0 0 112 77" fill="none" xmlns="http://www.w3.org/2000/svg">
<g clip-path="url(#clip0_5_247)">
<path d="M41.0624 0.0570162C40.334 0.206859 40.1215 1.52548 40.7892 1.78021C40.9258 1.84015 42.2157 1.94504 43.627 2.01996C46.5102 2.1698 48.1339 2.48447 46.3129 2.52942C46.0246 2.54441 45.7666 2.61933 45.7363 2.72422C45.6301 3.00892 46.8896 3.81807 47.4359 3.81807C47.709 3.81807 48.0277 3.92297 48.1339 4.05782C48.5285 4.52234 49.4845 5.01681 50.0005 5.01681C50.4102 5.01681 50.5771 4.91193 50.8502 4.52234C51.1538 4.08779 51.2749 4.02785 51.8215 4.04284C52.1555 4.05782 52.8081 4.08779 53.2632 4.08779C54.0524 4.11776 54.0674 4.13274 53.8399 4.38747C53.445 4.82202 53.5209 5.51131 54.0825 6.30545C54.3558 6.71002 54.7501 7.3244 54.9475 7.66905L55.2967 8.28338L54.9325 8.73293C52.6865 11.475 46.0853 19.2669 45.7514 19.5815C44.7044 20.5405 42.0791 21.0949 41.2141 20.5405C40.8499 20.3008 39.0138 17.7535 39.0138 17.4687C39.0138 17.3938 38.8468 17.1991 38.6647 17.0492C38.4675 16.8994 37.8453 16.0452 37.2838 15.1462L36.2519 13.5129L36.7072 13.1533C36.9651 12.9585 37.39 12.434 37.648 11.9995C38.1792 11.0555 38.8165 10.4711 39.9091 9.8867C40.8044 9.39221 40.9258 8.98765 40.2278 8.8378C39.5145 8.68794 38.9227 8.88279 36.95 9.90168C34.7344 11.0555 33.5356 11.52 31.8664 11.8347C30.4551 12.1194 29.9088 12.3741 29.9088 12.7936C29.9088 13.3031 30.4247 13.5729 31.5325 13.6328C32.094 13.6627 32.6858 13.7377 32.8375 13.7976C32.9893 13.8426 33.2928 13.8575 33.5204 13.8126C34.3399 13.6478 34.8862 14.1123 36.0698 15.9554C36.9045 17.274 37.1472 17.7684 37.0866 18.0682C37.041 18.3229 37.0866 18.4877 37.2231 18.5476C37.3445 18.5926 38.0881 19.6865 38.862 20.9901C39.9546 22.7732 40.3947 23.3875 40.7134 23.5074C41.5783 23.8221 41.7452 25.3954 41.0624 26.8489C40.8499 27.2985 40.683 27.793 40.6678 27.9278C40.6678 28.0626 39.8636 28.737 38.8468 29.4562L37.0258 30.7598L35.7056 29.4562C32.5644 26.3844 29.0893 25.4704 25.4018 26.7291C21.5778 28.0327 18.6642 31.7788 17.4501 36.9334C17.0253 38.7465 16.9038 42.2378 17.2225 44.2007C17.9054 48.5911 20.0754 52.7718 22.8069 54.9147L23.6719 55.5888L12.3362 55.6637L1.00047 55.7386L0.954949 56.5178L0.909424 57.312L14.9918 57.3418C22.731 57.372 47.5269 57.372 70.0922 57.3418L111.11 57.312L111.064 56.5178L111.019 55.7386L98.5907 55.6934L86.1622 55.6637L87.2854 54.8993C90.9726 52.4122 93.6285 48.2465 94.6302 43.3616C95.0095 41.5485 95.0853 38.0422 94.797 36.0942C94.0384 31.0146 92.0502 26.9388 88.6814 23.5524C87.1639 22.024 85.8588 21.065 84.0835 20.1659C81.5642 18.8923 79.7131 18.4428 77.0271 18.4428C74.9026 18.4428 73.4458 18.7124 71.4425 19.5066C70.0465 20.0611 69.9556 20.0611 69.197 19.5066C69.0604 19.4017 68.1044 17.7684 67.0721 15.8804C64.9628 12.0145 64.7503 11.3552 64.5684 8.38829C64.4469 6.33542 64.6744 5.36146 65.5244 4.44741L66.1011 3.81807L66.7838 3.99789C67.1635 4.08779 67.7247 4.25262 68.0436 4.35751C68.3772 4.47738 68.6048 4.50735 68.6048 4.41744C68.6048 4.19268 69.0905 4.23763 69.4246 4.49236C69.8646 4.82202 70.2741 4.77707 70.2741 4.41744C70.2741 4.25262 70.1681 4.07281 70.0465 4.02785C69.9099 3.96792 69.8189 3.74315 69.8189 3.5034C69.8189 2.97895 69.409 2.76917 68.3923 2.76917C67.9979 2.76917 67.6639 2.67926 67.5579 2.55939C67.4212 2.40955 67.1329 2.3646 66.5869 2.39457C66.1468 2.42453 64.8417 2.48447 63.6733 2.51444C61.8975 2.57438 61.4881 2.54441 61.1846 2.33463C60.8807 2.13983 60.4256 2.09488 59.0447 2.10987C58.0887 2.12485 57.0112 2.18479 56.662 2.24472C56.1617 2.31964 55.6759 2.24472 54.4618 1.90008C53.5967 1.64535 52.5197 1.39062 52.0641 1.33068C51.609 1.28573 50.7592 1.06096 50.1826 0.86617C49.4238 0.596453 48.923 0.506547 48.2705 0.551497C47.7849 0.566482 47.3297 0.551497 47.269 0.476576C47.2082 0.416639 46.7682 0.371686 46.2977 0.371686C45.5238 0.371686 42.5799 0.131937 41.8212 0.0120633C41.6542 -0.0179053 41.3204 0.0120633 41.0624 0.0570162ZM51.943 2.79914C52.58 2.90403 53.339 3.14378 53.7942 3.39851L54.5683 3.83306L53.5817 3.77312C53.0356 3.72817 52.3524 3.59331 52.0641 3.47344C51.7757 3.33858 51.3055 3.14378 51.0475 3.03889C50.5619 2.85908 50.3798 2.61933 50.7137 2.61933C50.7895 2.61933 51.3513 2.69425 51.943 2.79914ZM65.1301 3.83306C65.4028 3.96792 65.4184 4.01287 65.221 4.23763C65.0994 4.37249 64.8417 4.79205 64.6443 5.16667C64.3102 5.79598 64.2801 6.0058 64.2801 8.11855C64.2801 9.78184 64.2344 10.3512 64.1133 10.2164C63.7034 9.76681 61.6247 5.88591 61.6247 5.57123C61.6247 5.37644 61.4881 5.09172 61.3208 4.94189C61.154 4.79205 61.0174 4.62723 61.0174 4.56729C61.0174 4.50735 61.4122 4.41744 61.8824 4.37249C62.3983 4.31255 62.8991 4.16271 63.1267 3.9829C63.5668 3.65325 64.6443 3.56334 65.1301 3.83306ZM61.154 9.16746C62.3375 11.3402 62.5199 11.7747 62.2772 11.7447C62.1707 11.7298 59.8037 7.21949 59.6671 6.76999C59.4998 6.23055 60.0614 7.12961 61.154 9.16746ZM55.7061 11.8497C55.7061 12.0444 49.7273 24.1368 49.5149 24.3765C49.3934 24.5264 49.1962 24.6462 49.0748 24.6462C48.7258 24.6462 47.9366 22.7882 47.8608 21.7543L47.7849 20.8103L48.8471 19.2519C49.439 18.3828 50.5012 16.9743 51.1991 16.1052C53.2481 13.5878 55.7061 11.2653 55.7061 11.8497ZM63.4 13.453C63.4301 13.4829 64.1284 14.7566 64.9477 16.27C66.4803 19.0721 66.5261 19.2369 65.767 19.2519C65.2511 19.2519 64.9628 19.8063 64.9628 20.8103C64.9628 21.3647 64.9025 21.6494 64.8266 21.5595C64.5835 21.3347 60.5773 13.6478 60.6532 13.5729C60.8807 13.3331 63.1875 13.2432 63.4 13.453ZM60.6989 18.4428C62.2772 21.4546 62.9901 22.968 62.9449 23.1778C62.8534 23.4925 63.2633 24.4964 63.4758 24.4964C63.5366 24.4964 63.7185 24.7511 63.8857 25.0658L64.1892 25.6502L63.4301 27.1336C60.4256 33.0524 60.4562 40.3048 63.5215 46.5982C65.2511 50.1344 68.1044 53.2961 71.1999 55.0942L72.1709 55.6637H53.4757H34.7799L36.0395 54.4201C38.604 51.8725 40.0608 48.6361 40.5465 44.3656C40.7134 42.8371 40.7437 42.7772 41.0472 42.8821C41.2293 42.957 41.8212 43.002 42.3674 43.002C43.202 43.002 43.46 42.9421 43.9912 42.5824C44.7499 42.0879 45.539 41.069 45.539 40.5745C45.539 40.2898 45.4631 40.2299 45.0534 40.2299H44.5678L45.1596 39.9302C45.4935 39.7654 45.8425 39.6306 45.9335 39.6306C46.0246 39.6306 46.2674 39.5107 46.4647 39.3458C46.7985 39.0911 46.7985 39.0311 46.6468 38.3419C46.495 37.7125 46.5102 37.4878 46.753 36.7685C47.1324 35.6447 49.1051 31.554 53.5365 22.6833C56.8745 16.0153 57.9671 14.0074 58.2555 14.0074C58.3163 14.0074 59.4089 16.0003 60.6989 18.4428ZM67.6488 21.3497C67.8005 21.7393 67.7854 21.8292 67.5428 21.9491C67.3911 22.039 67.2087 22.2338 67.1635 22.3986C67.1178 22.5634 66.9661 22.6983 66.8446 22.6983C66.6778 22.6983 66.6321 22.4735 66.6321 21.7992C66.6321 20.9151 66.6321 20.9001 67.057 20.9001C67.3911 20.9001 67.5122 21.0051 67.6488 21.3497ZM45.7363 23.0129C45.9639 23.1778 46.2067 23.5674 46.2826 23.8671C46.4647 24.5863 46.6619 26.2945 46.5406 26.2945C46.495 26.2945 46.3433 26.1597 46.1915 26.0098C46.0398 25.845 45.6908 25.6951 45.4024 25.6652C44.9017 25.6202 44.8865 25.6053 44.4767 24.2417C44.2491 23.4775 44.0974 22.8331 44.1429 22.7732C44.3402 22.5784 45.3721 22.7132 45.7363 23.0129ZM76.4961 23.3426C76.4961 23.3576 76.7688 25.2156 77.1029 27.4633C77.437 29.6959 77.7097 31.6289 77.7097 31.7488C77.7097 31.9286 76.3896 32.3931 76.2685 32.2583C76.2529 32.2283 75.8435 31.509 75.3884 30.64L74.5384 29.0666L74.4927 26.2945L74.4475 23.5224L74.9026 23.4325C75.3578 23.3276 76.4961 23.2677 76.4961 23.3426ZM78.8782 23.5074C78.9847 23.5973 78.0589 29.7859 77.877 30.2503C77.7856 30.4901 76.7844 24.3315 76.7995 23.5374C76.7995 23.2827 76.8904 23.2677 77.8012 23.3426C78.3472 23.3726 78.833 23.4475 78.8782 23.5074ZM80.76 24.0319L81.3216 24.2716L80.5023 26.4443C77.7097 33.7717 77.558 33.8616 78.5446 27.6281C79.258 23.1778 79.1364 23.5524 79.7131 23.6723C79.9864 23.7322 80.4566 23.897 80.76 24.0319ZM74.1285 24.826C74.2958 27.1336 74.3717 28.5422 74.3109 28.5422C74.2044 28.5422 72.0498 24.4814 72.1257 24.4215C72.2623 24.2866 73.5518 23.7621 73.795 23.7621C73.9919 23.7472 74.0527 23.942 74.1285 24.826ZM82.915 25.1557C83.3094 25.4104 83.6284 25.6502 83.6284 25.7101C83.6284 25.8 79.804 30.9396 79.0148 31.9136C78.8179 32.1534 78.6205 32.3332 78.5748 32.2882C78.5446 32.2433 78.7873 31.4641 79.1515 30.565C79.5006 29.651 80.1833 27.8828 80.6691 26.6391C81.6557 24.0619 81.4276 24.2117 82.915 25.1557ZM44.0974 25.8899C44.5375 26.2196 44.2946 26.7141 43.1717 27.793C42.6254 28.3324 42.2764 28.5871 42.413 28.3623C42.6102 28.0626 42.6557 27.793 42.5799 27.2985C42.3826 26.0548 43.2324 25.2756 44.0974 25.8899ZM84.9028 26.7141L85.7678 27.5982L83.7042 30.6849C81.4276 34.1013 81.5492 33.9964 80.654 33.0374C80.4108 32.7827 79.9557 32.513 79.6372 32.4231L79.0605 32.2733L79.4855 31.7038C82.9 27.1336 83.871 25.845 83.9318 25.845C83.977 25.845 84.417 26.2346 84.9028 26.7141ZM70.6689 27.5382C72.2774 30.4002 72.7325 31.2393 72.6416 31.2393C72.5808 31.2393 70.4107 29.3363 68.6048 27.703C68.4229 27.5232 68.4837 27.4034 69.0604 26.8189C69.4246 26.4443 69.7732 26.1447 69.8189 26.1447C69.8646 26.1447 70.2439 26.774 70.6689 27.5382ZM86.7389 28.8268C87.1337 29.3963 87.407 29.9357 87.3613 30.0256C87.2854 30.1455 83.3551 33.3371 82.2926 34.1313C82.1716 34.2362 82.05 34.2362 81.944 34.1313C81.8375 34.0264 82.4599 32.9775 83.8559 30.8797C84.9787 29.1865 85.9346 27.793 85.9653 27.793C85.9954 27.793 86.3445 28.2574 86.7389 28.8268ZM71.1848 30.3103C72.7325 31.6888 73.3549 32.3631 73.7342 33.0225L74.2195 33.9065L73.7342 34.3111C73.2183 34.7456 72.2925 35.2401 72.2015 35.1202C72.0649 34.9704 68.6048 28.2425 68.6048 28.1526C68.6048 28.0177 68.9087 28.2574 71.1848 30.3103ZM45.9184 31.4791C45.0838 33.1573 44.5526 34.0264 44.0367 34.5508C43.3083 35.2851 42.9593 35.4649 42.9593 35.0753C42.9593 34.9555 43.4449 34.2512 44.0215 33.5019C44.7803 32.543 45.0838 32.0185 45.0838 31.7188C45.0838 31.4042 45.3569 30.9396 46.0094 30.1305C46.5254 29.5011 46.9806 29.0066 47.0261 29.0516C47.0565 29.0966 46.5709 30.1904 45.9184 31.4791ZM28.5734 32.7677C28.9528 35.1802 28.9679 35.4349 28.7858 36.4838C28.6189 37.3679 28.4975 37.6676 28.1637 37.9373C27.936 38.1321 27.6781 38.267 27.6022 38.252C27.5111 38.222 27.2835 37.6976 27.0863 37.0832C26.7676 36.0643 26.7221 35.6897 26.7221 33.1723C26.7221 31.6439 26.7676 30.3403 26.8282 30.2953C26.8738 30.2354 27.2076 30.1904 27.5415 30.1904H28.1637L28.5734 32.7677ZM29.5901 30.3253C29.757 30.4302 29.7418 30.6999 29.5294 32.0035C29.1349 34.4759 29.0893 34.5359 28.801 32.7377C28.6644 31.8686 28.5127 30.9396 28.452 30.6699C28.3609 30.2054 28.361 30.1904 28.8617 30.1904C29.15 30.1904 29.4687 30.2503 29.5901 30.3253ZM88.5448 31.9586C88.7116 32.3032 88.803 32.6179 88.7724 32.6479C88.7422 32.6778 87.3462 33.1573 85.6769 33.7118C84.0076 34.2662 82.5508 34.7606 82.4293 34.8056C82.3082 34.8505 82.2474 34.7906 82.2776 34.6557C82.3082 34.5209 83.5219 33.457 84.9787 32.3032L87.619 30.1754L87.938 30.7448C88.1198 31.0595 88.3931 31.599 88.5448 31.9586ZM26.4489 32.6628L26.373 34.7606L25.7964 32.9625C25.4777 31.9736 25.2045 31.0895 25.2045 30.9996C25.2045 30.7898 26.2971 30.3253 26.4489 30.4602C26.4944 30.5201 26.5096 31.509 26.4489 32.6628ZM30.8648 30.7299C31.138 30.8647 31.3807 30.9996 31.3959 31.0296C31.5022 31.1194 29.8633 36.4239 29.666 36.6337C29.5446 36.7536 29.4535 36.7835 29.4535 36.7086C29.4384 36.6187 29.3776 36.2591 29.317 35.8995C29.2107 35.4199 29.2866 34.6707 29.5597 33.0524C29.757 31.8537 29.9543 30.7748 29.9847 30.6699C30.0757 30.4302 30.2881 30.4451 30.8648 30.7299ZM67.376 31.7937C67.7247 32.4381 67.9979 33.0075 67.9979 33.0674C67.9979 33.2622 66.192 32.0634 66.1769 31.8686C66.1769 31.6439 66.5869 30.64 66.6928 30.64C66.7386 30.64 67.042 31.1644 67.376 31.7937ZM25.7053 33.3971C26.373 35.5698 26.6158 37.0832 26.282 37.0832C26.2061 37.0832 25.9481 36.6936 25.7205 36.2141C24.9314 34.5658 23.8388 32.0785 23.8388 31.9136C23.8388 31.7788 24.719 31.0895 24.9011 31.0895C24.9466 31.0895 25.3108 32.1234 25.7053 33.3971ZM32.3216 31.6289C32.5796 31.8387 32.792 32.0634 32.792 32.1384C32.792 32.2882 30.3944 35.8845 30.3033 35.8845C30.2578 35.8845 30.3185 35.5698 30.4399 35.1652C30.5613 34.7756 30.88 33.7417 31.1531 32.8427C31.4111 31.9586 31.6843 31.2393 31.7449 31.2393C31.8057 31.2393 32.0636 31.4191 32.3216 31.6289ZM24.4761 34.0414C24.9466 35.0903 25.3108 35.9893 25.2653 36.0193C25.2197 36.0793 24.3396 35.2102 22.8221 33.6068L22.473 33.2472L22.9435 32.6928C23.2014 32.3931 23.4594 32.1384 23.5201 32.1384C23.5808 32.1384 24.0057 32.9925 24.4761 34.0414ZM33.5659 32.7527L33.8998 33.2322L33.5963 33.472C33.4294 33.6068 32.7617 34.1313 32.1243 34.6557C31.487 35.1802 30.971 35.5548 30.971 35.4949C30.971 35.3151 33.0045 32.2882 33.1259 32.2882C33.1866 32.2882 33.3838 32.498 33.5659 32.7527ZM67.2997 32.9925C68.2406 33.5769 68.4837 33.8166 68.8173 34.5059C69.0448 34.9555 69.2121 35.3301 69.1814 35.36C69.1513 35.375 68.3471 35.1802 67.3911 34.9105L65.646 34.431L65.6912 33.9215C65.7369 33.3071 66.0102 32.2882 66.1161 32.2882C66.1619 32.2882 66.6928 32.6029 67.2997 32.9925ZM77.7404 33.517C77.6495 33.6068 77.6339 33.517 77.6796 33.2322C77.7555 32.9176 77.7856 32.8876 77.8313 33.0974C77.8615 33.2472 77.8313 33.427 77.7404 33.517ZM79.5307 33.457C79.698 33.6518 79.8347 33.8916 79.8347 33.9515C79.8347 34.1613 78.5899 34.8655 78.4688 34.7306C78.408 34.6707 78.3171 34.3261 78.2714 33.9964C78.1498 32.9325 78.8782 32.6179 79.5307 33.457ZM89.2581 33.9665C89.7283 35.5548 89.7283 35.5548 89.5922 35.6297C89.5158 35.6747 88.0289 35.8245 86.2687 35.9743L83.0667 36.2291L82.7483 35.9144C82.0199 35.1952 82.1716 35.0903 85.5704 33.9665C87.3005 33.3821 88.7573 32.9026 88.8181 32.9026C88.8788 32.8876 89.0758 33.3821 89.2581 33.9665ZM77.2697 33.9814C77.0728 34.1762 77.0421 33.8166 77.2094 33.3821C77.3154 33.1423 77.3305 33.1573 77.3762 33.472C77.4063 33.6668 77.3611 33.8916 77.2697 33.9814ZM24.1575 35.39C25.9785 37.233 26.4185 37.9073 26.4185 38.8663C26.4185 39.3308 26.3427 39.4957 26.024 39.7055C25.6901 39.9152 25.5991 39.9302 25.4322 39.7504C24.9921 39.2709 21.5625 34.8505 21.5625 34.7456C21.5625 34.5808 22.1847 33.6368 22.2909 33.6368C22.3517 33.6368 23.1863 34.431 24.1575 35.39ZM78.1654 34.7157C78.1654 35.1053 78.1046 35.2851 77.9529 35.2851C77.6339 35.2851 77.5279 34.8505 77.7253 34.2662C77.9378 33.6368 78.1654 33.8766 78.1654 34.7157ZM75.4035 36.4389C75.1453 36.7536 74.5384 36.6636 74.1436 36.2441C73.5518 35.6147 73.5066 35.2851 73.9919 34.8655L74.4169 34.5209L74.9936 35.375C75.4336 36.0343 75.5245 36.289 75.4035 36.4389ZM35.4173 35.5248L35.827 36.349L34.7041 36.8584C33.8239 37.248 33.4446 37.3529 33.0348 37.278C32.7313 37.233 32.4885 37.1581 32.4885 37.1282C32.4885 36.7835 34.522 34.7007 34.8406 34.6857C34.9317 34.6857 35.1897 35.0603 35.4173 35.5248ZM67.6036 35.1802C69.2121 35.6147 69.4547 35.7196 69.6823 36.1242C70.1223 36.8584 70.0771 36.8884 68.4229 36.9933C67.5579 37.0532 66.5411 37.1282 66.1468 37.1731L65.4184 37.263V36.0793C65.4184 34.9704 65.4787 34.6707 65.7067 34.6857C65.752 34.7007 66.617 34.9105 67.6036 35.1802ZM80.7449 35.1202C80.5932 35.4199 79.1364 35.9893 78.9696 35.8245C78.8481 35.7047 79.379 35.1353 79.7588 34.9704C79.9256 34.9105 80.2591 34.8505 80.4872 34.8505C80.8514 34.8356 80.8815 34.8655 80.7449 35.1202ZM23.247 37.3379C24.203 38.5517 25.0073 39.6005 25.0376 39.6755C25.068 39.7654 24.1575 39.196 23.0042 38.4168C21.866 37.6526 20.8949 36.9334 20.8494 36.8285C20.7583 36.6187 21.2591 35.1353 21.4108 35.1353C21.4715 35.1353 22.2909 36.1242 23.247 37.3379ZM81.8832 35.7496C82.0199 36.0043 82.1108 36.2291 82.0801 36.2591C82.05 36.2741 81.6099 36.334 81.079 36.3939C80.1381 36.4988 80.123 36.4988 80.2898 36.1841C80.4415 35.8845 81.2915 35.2851 81.5341 35.2851C81.5949 35.2851 81.7617 35.4949 81.8832 35.7496ZM42.5495 35.6447C42.8227 35.7496 43.1717 36.0043 43.3386 36.1991L43.6422 36.5437L43.1262 36.1841C42.3523 35.6597 41.2141 35.5997 40.5313 36.0643C39.8636 36.5138 39.3628 37.3979 39.1807 38.4468C39.0593 39.211 39.0441 39.2259 39.0289 38.6565C39.0138 37.8174 39.2566 37.0233 39.727 36.4688C40.5768 35.4799 41.5176 35.2102 42.5495 35.6447ZM79.804 36.1242C79.6674 36.2591 79.4855 36.319 79.379 36.2591C79.1665 36.1242 79.4549 35.8845 79.8347 35.8845C80.0165 35.8845 80.0165 35.9294 79.804 36.1242ZM89.774 36.2141C89.8197 36.4089 89.88 37.0233 89.8956 37.6076L89.9257 38.6565L86.5872 38.7615C84.7511 38.8214 83.2184 38.8364 83.1883 38.7914C83.0818 38.6865 83.0517 36.4838 83.1577 36.4688C83.2792 36.4539 89.1064 35.9294 89.4249 35.8995C89.5922 35.8995 89.7283 36.0193 89.774 36.2141ZM29.15 37.1432C28.9224 37.3679 28.8313 37.1731 28.9528 36.6187L29.059 36.1092L29.1804 36.5587C29.2411 36.8135 29.2259 37.0682 29.15 37.1432ZM32.4127 36.7835C32.2609 36.9484 32.0333 37.0832 31.8967 37.0832C31.7298 37.0682 31.7905 36.9633 32.1091 36.7086C32.6251 36.289 32.8224 36.334 32.4127 36.7835ZM82.2017 36.7086C82.2926 36.9334 82.0043 37.8324 81.8375 37.8324C81.6858 37.8324 80.3048 36.8584 80.2898 36.7536C80.2898 36.6936 80.654 36.6187 81.094 36.5887C81.519 36.5587 81.944 36.5288 82.0043 36.5138C82.0651 36.4988 82.156 36.5887 82.2017 36.7086ZM36.1153 37.1132C36.2064 37.3679 36.2519 37.6076 36.2064 37.6526C36.1153 37.7575 34.1578 37.5178 34.1578 37.4128C34.1578 37.323 35.6146 36.6636 35.8574 36.6487C35.9029 36.6337 36.0243 36.8434 36.1153 37.1132ZM26.9193 37.263C26.98 37.4428 26.98 37.6226 26.9345 37.6676C26.8434 37.7725 26.5703 37.3679 26.5703 37.1132C26.5703 36.7985 26.8283 36.9183 26.9193 37.263ZM70.7749 38.222C71.0939 38.8513 71.3214 39.3908 71.2757 39.4357C71.1848 39.5256 65.7218 39.8253 65.6309 39.7354C65.6003 39.7055 65.5244 39.166 65.4787 38.5517L65.3727 37.4128L67.4062 37.278C68.5289 37.1881 69.6064 37.1132 69.8189 37.1132C70.153 37.0832 70.274 37.233 70.7749 38.222ZM22.8676 38.5966C23.9906 39.3608 24.8859 40.0052 24.8555 40.0351C24.7948 40.0801 20.3637 39.0461 20.2423 38.9562C20.1361 38.8813 20.561 37.233 20.6824 37.233C20.7583 37.233 21.7446 37.8474 22.8676 38.5966ZM31.8815 37.3379C31.8815 37.3979 31.7449 37.6526 31.5628 37.8924C31.3352 38.222 30.8496 38.5217 29.9391 38.9263C29.2259 39.2259 28.6189 39.4657 28.5886 39.4357C28.4823 39.3308 31.3656 37.248 31.6236 37.233C31.7601 37.233 31.8815 37.278 31.8815 37.3379ZM32.8527 37.5178C32.8983 37.5777 32.7617 37.7125 32.5492 37.8174C31.9878 38.0572 31.8512 38.0272 32.0333 37.6826C32.2002 37.3829 32.701 37.278 32.8527 37.5178ZM34.9165 37.8324C35.22 37.9073 34.871 38.0722 33.1714 38.6266C32.0029 39.0162 30.9862 39.3308 30.9255 39.3308C30.8496 39.3308 30.9255 39.151 31.0924 38.9263C31.2745 38.6865 31.8512 38.3269 32.5037 38.0422C33.6115 37.5777 33.8543 37.5477 34.9165 37.8324ZM81.0483 38.222C81.3824 38.5217 81.625 38.8064 81.5798 38.8513C81.4884 38.9413 79.9864 37.9523 79.9864 37.7874C79.9864 37.5177 80.4872 37.7275 81.0483 38.222ZM27.0863 38.267C27.3442 38.5367 27.3139 38.8813 27.0407 38.8813C26.9345 38.8813 26.5703 38.237 26.5703 38.0572C26.5703 37.8924 26.8434 38.0122 27.0863 38.267ZM36.4644 38.3568C36.5554 38.5667 36.6009 38.7615 36.5706 38.7914C36.4644 38.8663 30.531 40.2299 30.2578 40.2299C30.015 40.2299 30.015 40.2149 30.2578 39.9602C30.5006 39.7204 35.4477 38.0272 36.0243 37.9972C36.1761 37.9822 36.3733 38.1471 36.4644 38.3568ZM80.8966 38.8364C80.8966 38.8663 80.6992 38.8813 80.4415 38.8813C80.0622 38.8813 79.9864 38.8214 79.9864 38.5067V38.1171L80.4415 38.4618C80.6992 38.6416 80.8966 38.8064 80.8966 38.8364ZM30.5158 39.2409C30.1668 39.5706 27.238 40.6495 27.0863 40.4996C27.0104 40.4097 30.3489 38.9113 30.6675 38.8963C30.8193 38.8813 30.7586 39.0012 30.5158 39.2409ZM89.9408 40.2599C89.88 41.0241 89.8042 41.6684 89.774 41.6984C89.6982 41.7883 83.9468 40.6944 83.6434 40.5446C83.1577 40.2748 82.9909 39.9602 83.0969 39.4957L83.1883 39.0461L85.1911 38.9862C86.2988 38.9712 87.8315 38.9263 88.6207 38.9113L90.0473 38.8813L89.9408 40.2599ZM22.9586 39.8703C25.0224 40.3798 25.1894 40.4397 25.0376 40.6944C24.9162 40.9492 24.7038 40.9791 23.4898 40.9791C22.7159 40.9791 21.6384 41.0241 21.077 41.084L20.0451 41.1739V40.5146C20.0451 39.5556 20.1816 39.166 20.4852 39.2409C20.6217 39.2859 21.7295 39.5706 22.9586 39.8703ZM81.7009 39.3908C81.8375 39.4957 81.9591 39.7354 81.9591 39.9302C81.9591 40.2449 81.9134 40.2599 81.2 40.17C80.1381 40.0351 79.9864 39.9452 79.9864 39.5406C79.9864 39.211 80.0466 39.181 80.7148 39.181C81.1091 39.181 81.5491 39.2859 81.7009 39.3908ZM75.5703 39.7354C75.8435 39.9751 75.8586 40.0351 75.6612 40.2898C75.4487 40.5745 75.4336 40.5745 75.1151 40.2898C74.9479 40.14 74.7359 39.8853 74.66 39.7504C74.5385 39.5256 74.5686 39.4807 74.8876 39.4807C75.0845 39.4807 75.3884 39.6005 75.5703 39.7354ZM77.1029 39.9452C77.1029 40.095 76.9969 40.2299 76.8754 40.2299C76.6478 40.2299 76.5569 39.7654 76.7387 39.5856C76.9055 39.4357 77.1029 39.6306 77.1029 39.9452ZM71.7615 40.17C71.7916 40.3348 71.6856 40.5745 71.5339 40.7094C71.1542 41.039 66.4803 42.5375 66.3286 42.3876C66.192 42.2378 65.7218 40.5446 65.7218 40.17C65.7218 39.9302 67.057 39.8253 70.2741 39.8403C71.6098 39.8553 71.7158 39.8853 71.7615 40.17ZM76.4961 40.0201C76.4961 40.14 76.4353 40.1999 76.3444 40.155C76.2685 40.11 76.1927 40.0052 76.1927 39.9152C76.1927 39.8403 76.2685 39.7803 76.3444 39.7803C76.4353 39.7803 76.4961 39.8853 76.4961 40.0201ZM29.9088 40.0651C29.9088 40.3198 29.5142 40.4996 28.3913 40.7394C27.7691 40.8742 27.0863 41.0241 26.8738 41.084C25.9937 41.2938 26.8283 40.8892 28.194 40.4397C29.8936 39.8853 29.9088 39.8853 29.9088 40.0651ZM79.1515 40.7544L79.2424 41.2039L78.8481 40.7693C78.5446 40.4397 78.4989 40.3048 78.6506 40.2149C78.9088 40.0651 79.0304 40.1999 79.1515 40.7544ZM76.1927 40.3798C76.1927 40.4547 76.1319 40.5296 76.0405 40.5296C75.9646 40.5296 75.8887 40.4547 75.8887 40.3798C75.8887 40.2898 75.9646 40.2299 76.0405 40.2299C76.1319 40.2299 76.1927 40.2898 76.1927 40.3798ZM78.6813 40.9342C79.364 41.6984 79.3489 42.2078 78.6356 42.4476C78.2714 42.5675 78.1498 42.5525 77.9679 42.3577C77.6188 41.9681 77.4822 41.0241 77.7253 40.5895C77.9529 40.14 77.9679 40.14 78.6813 40.9342ZM81.5492 40.4696C81.8526 40.5596 81.8676 40.6644 81.5798 41.039C81.3824 41.3088 81.3517 41.3088 80.9273 41.0091C80.6841 40.8293 80.3958 40.5745 80.2747 40.4397C80.0773 40.1999 80.1074 40.185 80.6691 40.2898C81.0031 40.3498 81.3974 40.4247 81.5492 40.4696ZM80.6389 41.054C81.1091 41.4736 81.1548 41.5785 80.7906 41.5785C80.4872 41.5785 79.9864 41.1589 79.9864 40.8742C79.9864 40.5895 80.1531 40.6345 80.6389 41.054ZM86.1928 42.6723C87.5587 43.6763 88.7573 44.5454 88.8331 44.6053C89.0155 44.7102 88.4689 46.1038 88.044 46.6582L87.7712 47.0178L84.9028 44.4855C82.4293 42.3127 82.0349 41.9231 82.0801 41.5934C82.1108 41.3837 82.2474 41.084 82.384 40.9342C82.8542 40.4247 83.5369 40.7394 86.1928 42.6723ZM72.839 41.4287C73.0209 41.4287 73.1575 41.4586 73.1575 41.5036C73.1575 41.6684 68.863 46.8979 68.6962 46.9429C68.6048 46.9578 68.2712 46.5533 67.9678 46.0438L67.3911 45.0998L69.409 43.1069C70.5016 41.9981 71.549 41.054 71.7158 40.9791C71.9433 40.8892 72.08 40.9342 72.2774 41.1439C72.414 41.2938 72.6717 41.4287 72.839 41.4287ZM36.9651 41.4586C37.1321 42.2078 36.9045 42.2678 33.9757 42.3727C31.7298 42.4326 31.3049 42.4176 31.0773 42.2078C30.9407 42.0879 30.8496 41.9381 30.8952 41.8931C30.971 41.8182 35.8725 41.054 36.6161 40.9941C36.783 40.9791 36.9045 41.1439 36.9651 41.4586ZM87.1945 41.5036C88.4539 41.7283 89.5314 41.9681 89.5922 42.028C89.7283 42.1479 89.3641 43.7962 89.1215 44.2307C89.0155 44.3955 88.5448 44.1108 86.8755 42.9121C85.7221 42.073 84.6602 41.2938 84.5386 41.1739C84.3412 40.9791 84.3412 40.9492 84.6145 41.0241C84.7812 41.069 85.9502 41.2938 87.1945 41.5036ZM24.6279 41.3088C24.294 41.7433 24.2789 42.1629 24.5975 42.4775C24.7796 42.6573 24.9011 42.8222 24.8707 42.8521C24.8403 42.8821 23.8085 43.017 22.5641 43.1518C19.9692 43.4366 20.0451 43.4665 20.0451 42.1479V41.2938L21.684 41.2338C22.5793 41.2188 23.6415 41.1739 24.0512 41.1589C24.6279 41.129 24.7493 41.1739 24.6279 41.3088ZM69.1362 43.0769C68.2255 43.976 67.4212 44.7252 67.3454 44.7252C67.2087 44.7252 66.4803 43.1668 66.4803 42.8672C66.4803 42.7023 69.9706 41.4736 70.5775 41.4436C70.699 41.4287 70.0465 42.1629 69.1362 43.0769ZM72.2925 45.7441C71.2456 47.4523 70.3655 48.8758 70.3198 48.9208C70.2439 49.0107 68.9238 47.5423 68.9087 47.3474C68.9087 47.2575 69.9099 45.9689 71.124 44.4554L73.3394 41.7283L73.7643 42.1779L74.2044 42.6424L72.2925 45.7441ZM77.4063 42.043C77.5128 42.2078 77.543 42.3876 77.5128 42.4326C77.4063 42.5225 76.7995 42.1928 76.7995 42.043C76.7995 41.6534 77.1938 41.6384 77.4063 42.043ZM30.531 42.028C30.9407 42.2528 30.8952 42.4775 30.4399 42.4775C30.1668 42.4775 30.0605 42.4026 30.0605 42.1779C30.0605 41.8332 30.1212 41.8182 30.531 42.028ZM75.7069 42.1779C75.9646 42.3427 76.1927 42.5675 76.1927 42.6873C76.1927 42.8971 75.1001 45.3995 74.9328 45.5793C74.872 45.6242 74.8268 44.8601 74.8268 43.8711C74.8268 41.6984 74.8419 41.6684 75.7069 42.1779ZM29.8177 42.2677C29.8936 42.4476 29.8177 42.4925 29.4991 42.4476C29.2866 42.4176 29.0742 42.3127 29.0286 42.2078C28.9376 41.9381 29.7115 41.9831 29.8177 42.2677ZM84.827 44.7402L87.7255 47.2875L87.2397 47.9618C86.6479 48.7859 86.4204 48.9807 86.2079 48.8459C86.132 48.8009 84.8576 47.4373 83.4008 45.819L80.7449 42.8821L81.2307 42.5375C81.5034 42.3427 81.7767 42.1929 81.8224 42.1779C81.8832 42.1779 83.2335 43.3316 84.827 44.7402ZM35.9029 42.8672C34.0364 44.4105 33.5811 44.4555 32.2912 43.2418L31.7146 42.7023L33.2017 42.6124C34.0212 42.5675 35.0683 42.5225 35.5235 42.5075L36.3582 42.4925L35.9029 42.8672ZM29.9088 42.9421C29.9088 43.017 29.8481 43.0769 29.757 43.0769C29.6812 43.0769 29.6053 42.972 29.6053 42.8371C29.6053 42.7173 29.6812 42.6573 29.757 42.7023C29.8481 42.7473 29.9088 42.8521 29.9088 42.9421ZM31.836 43.1668C32.2002 43.4665 32.4733 43.7362 32.443 43.7662C32.3823 43.8261 31.8208 43.7362 30.5765 43.4515C30.2578 43.3766 29.9998 42.8821 30.1819 42.7173C30.4399 42.4476 31.229 42.6723 31.836 43.1668ZM36.95 43.5564C36.8893 44.0808 36.8134 44.5454 36.7527 44.6053C36.6768 44.6952 36.2367 44.6353 34.9469 44.3506C34.6282 44.2756 34.7041 44.1858 35.6298 43.4515C36.1912 43.017 36.7527 42.6424 36.8437 42.6424C36.9955 42.6274 37.0107 42.8672 36.95 43.5564ZM74.66 45.3695C74.6751 46.1337 74.5535 46.4933 73.6734 48.4413C73.1118 49.6553 72.6416 50.6741 72.611 50.7039C72.5507 50.7788 71.6249 50.1493 70.9874 49.625C70.7447 49.4153 70.5775 49.1606 70.6081 49.0407C70.6232 48.9058 71.5033 47.4224 72.5507 45.7441L74.4475 42.6723L74.5384 43.5864C74.5992 44.0808 74.6444 44.89 74.66 45.3695ZM28.9983 42.9271C28.9983 43.002 28.8921 43.0769 28.7707 43.0769C28.6492 43.0769 28.5431 43.002 28.5431 42.9271C28.5431 42.8371 28.6492 42.7772 28.7707 42.7772C28.8921 42.7772 28.9983 42.8371 28.9983 42.9271ZM76.6478 43.901C76.6478 44.4405 76.7236 46.5383 76.8146 48.5612C76.9055 50.5838 76.9361 52.2922 76.8754 52.3373C76.8296 52.3819 76.4047 52.3224 75.9194 52.2024C74.8569 51.9474 74.872 51.9777 74.8419 48.7709L74.8268 46.4484L75.616 44.6952C76.056 43.7212 76.4654 42.9271 76.5413 42.9271C76.6021 42.9271 76.6478 43.3616 76.6478 43.901ZM77.6495 43.4366C77.7555 43.5264 78.1804 45.4594 78.6054 47.7221C79.0455 49.9846 79.4398 51.9925 79.4855 52.1875C79.5614 52.5322 79.5463 52.5322 78.3779 52.4871L77.1788 52.442L77.0878 49.8948C77.0271 48.4863 76.9361 46.3884 76.8904 45.2047L76.7844 43.047L77.133 43.1518C77.3305 43.2118 77.558 43.3316 77.6495 43.4366ZM83.3701 46.1337C84.8576 47.767 86.0562 49.1755 86.0411 49.2804C86.026 49.4602 84.5994 50.7187 84.402 50.7187C84.2809 50.7187 81.079 46.5982 80.6841 45.9539C80.6233 45.849 80.4415 45.2197 80.2747 44.5454C80.0316 43.5714 80.0165 43.3017 80.1682 43.1968C80.2747 43.1369 80.4415 43.0919 80.5324 43.1219C80.6233 43.1369 81.8983 44.4855 83.3701 46.1337ZM24.1878 43.5115C23.9298 43.6763 23.687 43.961 23.6567 44.1408C23.6264 44.4255 23.3532 44.5604 22.1088 44.9799C21.2742 45.2496 20.5914 45.4594 20.561 45.4295C20.4548 45.3096 20.212 43.7662 20.2727 43.6913C20.3789 43.5864 22.9738 43.2717 23.9906 43.2418L24.6734 43.2268L24.1878 43.5115ZM29.7267 44.0659C30.4096 45.0549 30.531 47.1376 29.9239 47.1227C29.8784 47.1227 29.6357 46.838 29.3928 46.4933C29.0286 45.9989 28.9528 45.7441 28.9831 45.1897C28.9983 44.6053 28.9376 44.4255 28.6341 44.1408C28.3458 43.8711 28.285 43.7212 28.3913 43.5264C28.6341 43.0919 29.2411 43.3316 29.7267 44.0659ZM79.364 44.6053L80.4109 45.9989L81.094 48.9957C81.4733 50.629 81.7617 52.0074 81.7315 52.0377C81.5949 52.1875 79.9105 52.502 79.804 52.3973C79.7282 52.307 78.0137 43.7212 78.0137 43.3616C78.0137 42.987 78.408 43.3616 79.364 44.6053ZM79.9708 44.2157C80.0773 44.6653 80.1381 45.0698 80.1074 45.1148C80.0622 45.1447 79.804 44.8601 79.5157 44.4704C78.6963 43.3466 78.6964 43.3766 79.273 43.3766C79.7739 43.3766 79.7889 43.3916 79.9708 44.2157ZM30.0605 43.8411C30.0605 43.931 29.9998 43.946 29.9088 43.901C29.8329 43.8561 29.757 43.7362 29.757 43.6613C29.757 43.5714 29.8329 43.5564 29.9088 43.6014C29.9998 43.6463 30.0605 43.7662 30.0605 43.8411ZM31.6691 43.916C32.9134 44.1708 33.399 44.3506 33.399 44.5604C33.399 44.6353 33.1107 44.875 32.7769 45.0998L32.1395 45.5044L31.2138 44.5903C30.7131 44.0808 30.3337 43.6763 30.3944 43.6763C30.4399 43.6763 31.0165 43.7812 31.6691 43.916ZM31.5932 45.3545C31.8815 45.7591 31.8815 45.7591 31.5932 45.9089C31.3352 46.0438 31.2442 45.9689 30.8344 45.3245C30.1971 44.3056 30.1971 43.916 30.8344 44.5154C31.0924 44.7552 31.4415 45.1298 31.5932 45.3545ZM35.7967 44.7402C36.3126 44.8301 36.7375 44.9649 36.7375 45.0399C36.7375 45.4444 36.3885 46.6881 36.2823 46.6432C36.2216 46.6132 35.6753 46.1787 35.0986 45.6842C34.3095 44.9949 34.0667 44.7252 34.2033 44.5903C34.2943 44.5004 34.4764 44.4555 34.613 44.4855C34.7344 44.5304 35.2656 44.6353 35.7967 44.7402ZM23.3988 45.1148C23.2318 45.3245 22.6855 45.924 22.1847 46.4634L21.2591 47.4224L21.0315 46.868C20.5307 45.6842 20.4852 45.7441 22.0481 45.2197C23.7933 44.6353 23.7781 44.6353 23.3988 45.1148ZM35.2504 46.1187L36.2671 47.0028L36.0546 47.5423C35.736 48.4263 35.478 48.9358 35.3566 48.8908C35.2959 48.8609 34.6282 48.1866 33.8543 47.3774C32.3216 45.7891 32.3216 45.7591 33.308 45.1597C33.8239 44.8451 33.7025 44.7851 35.2504 46.1187ZM24.2182 46.1787C24.3092 46.778 24.2789 46.853 23.3532 48.0067C22.8221 48.6661 22.3517 49.2055 22.2909 49.2055C22.1241 49.2205 21.3804 47.9019 21.4412 47.707C21.4715 47.6022 22.0026 46.9728 22.6248 46.2986C23.8843 44.935 24.0057 44.935 24.2182 46.1787ZM30.9559 46.3884C30.5917 46.6132 30.5158 46.5383 30.5158 45.879V45.2496L30.8496 45.7441C31.1228 46.1637 31.138 46.2685 30.9559 46.3884ZM27.7387 45.9539C27.7084 46.0588 27.4353 46.6582 27.1621 47.2725L26.6462 48.3963L26.54 47.1976C26.4944 46.5383 26.4792 45.9539 26.5248 45.879C26.5551 45.819 26.8586 45.7741 27.2076 45.7741C27.6326 45.7741 27.7995 45.834 27.7387 45.9539ZM26.2668 47.4823C26.2668 49.0257 26.2516 49.0556 25.5536 50.5541C25.1742 51.3933 24.81 52.0675 24.7645 52.0675C24.7038 52.0675 24.4154 51.813 24.1119 51.498L23.5505 50.9434L24.7796 48.4263C25.4625 47.0478 26.0695 45.924 26.1454 45.924C26.2061 45.924 26.2668 46.6282 26.2668 47.4823ZM28.6948 46.0738C28.6948 46.1487 28.6341 46.2236 28.5431 46.2236C28.4671 46.2236 28.3913 46.1487 28.3913 46.0738C28.3913 45.9839 28.4671 45.924 28.5431 45.924C28.6341 45.924 28.6948 45.9839 28.6948 46.0738ZM33.1714 47.0028C35.3263 49.2205 35.2959 49.1755 35.0835 49.5501C34.9924 49.745 34.7799 50.0595 34.6282 50.2545L34.3399 50.6141L32.9741 48.5312C31.9574 46.9878 31.6387 46.4034 31.7601 46.2685C32.0333 45.9389 32.2457 46.0438 33.1714 47.0028ZM25.508 46.4484C25.508 46.4933 25.0224 47.4823 24.4306 48.6511L23.3532 50.7936L22.9131 50.2693C22.6704 49.9846 22.473 49.685 22.473 49.5951C22.473 49.3703 24.0512 47.4224 24.7038 46.853C25.2197 46.4184 25.508 46.2536 25.508 46.4484ZM29.4232 47.3924C29.2563 47.5872 29.2107 47.5572 29.1349 47.2575C28.9376 46.5682 28.9983 46.4334 29.3018 46.808C29.5597 47.0927 29.5749 47.1976 29.4232 47.3924ZM32.792 48.681C33.5356 49.8051 34.1578 50.7788 34.1578 50.8537C34.1578 51.0937 33.2473 51.8279 33.1107 51.6781C33.0348 51.6032 32.5037 50.8685 31.9119 50.0446C31.0621 48.8309 30.8344 48.3813 30.7434 47.767C30.6523 47.0777 30.6827 46.9878 30.9862 46.763C31.1835 46.6432 31.3504 46.5533 31.3807 46.5682C31.3959 46.5982 32.0333 47.5423 32.792 48.681ZM82.5659 48.8459C83.4008 49.9697 84.0835 50.8988 84.0835 50.9434C84.0835 51.0337 82.3233 51.9177 82.1409 51.9177C82.0349 51.9177 81.8224 51.1533 80.9875 47.6022C80.8665 47.0927 80.8358 46.7031 80.8966 46.7481C80.9725 46.793 81.7159 47.737 82.5659 48.8459ZM74.6143 51.7376C74.5078 51.8279 72.8541 51.0337 72.8541 50.8839C72.8541 50.7341 74.1592 47.797 74.432 47.3474C74.5686 47.1077 74.6143 47.5272 74.6444 49.3553C74.66 50.629 74.6444 51.6929 74.6143 51.7376ZM27.4201 47.5272C27.3594 47.6771 27.4505 47.9019 27.6629 48.1266C27.9968 48.4863 28.0119 48.5612 27.9512 50.9137C27.936 52.2475 27.8753 53.371 27.845 53.4013C27.8147 53.431 27.5111 53.3859 27.1773 53.2812L26.5703 53.1012V51.0183C26.5703 49.0556 26.6006 48.8758 26.98 48.0967C27.3745 47.3175 27.6326 46.9728 27.4201 47.5272ZM30.5158 47.5872C30.5158 47.752 30.4551 47.8419 30.364 47.797C30.2881 47.752 30.2123 47.6022 30.2123 47.4823C30.2123 47.3624 30.2881 47.2725 30.364 47.2725C30.4551 47.2725 30.5158 47.4074 30.5158 47.5872ZM30.3337 48.2015C30.5461 48.5312 30.7131 49.3104 30.88 50.5689C31.1986 53.1012 31.2138 53.0565 30.6523 53.2515C30.3944 53.3413 30.1212 53.3859 30.0605 53.3413C29.9998 53.311 29.8026 52.1275 29.6053 50.7187C29.3321 48.6661 29.3018 48.1266 29.4535 47.9468C29.7418 47.6022 30.015 47.6771 30.3337 48.2015ZM29.0742 48.5012C29.1045 48.696 29.2866 49.8497 29.4535 51.0784C29.7874 53.5957 29.7874 53.5957 28.7707 53.5357L28.1637 53.4911L28.2092 51.0183C28.2547 48.9657 28.3002 48.5162 28.5127 48.3514C28.8617 48.0967 28.9831 48.1266 29.0742 48.5012ZM32.0333 50.5838C32.5341 51.2733 32.9438 51.8879 32.9438 51.9628C32.9438 52.0972 31.5477 52.9816 31.4566 52.9067C31.3959 52.8318 30.9862 49.9246 30.971 49.4602C30.971 49.1006 30.9407 49.0706 32.0333 50.5838ZM26.4034 51.7227C26.4185 52.4122 26.373 52.9668 26.3275 52.9668C26.1302 52.9668 25.0528 52.307 25.0528 52.1875C25.0528 52.1275 25.3108 51.558 25.6143 50.9434C26.282 49.6101 26.373 49.6999 26.4034 51.7227Z" fill="#F1F1F1"/>
<path d="M5.90872 60.7381C7.14112 60.7381 8.1217 60.9866 8.85045 61.4841C9.5792 61.9708 9.94355 62.7009 9.94355 63.6746C9.94355 64.3944 9.76135 64.9975 9.397 65.4841C9.04335 65.9603 8.55572 66.32 7.93417 66.5635C7.32332 66.7962 6.6214 66.9127 5.82835 66.9127L5.45862 65.6746C6.43382 65.6746 7.29655 65.8071 8.0467 66.0714C8.8076 66.3358 9.4077 66.7168 9.8471 67.2143C10.2865 67.7009 10.5062 68.2882 10.5062 68.9762C10.5062 69.6111 10.3883 70.1508 10.1525 70.5953C9.92747 71.0293 9.61667 71.3835 9.22017 71.6588C8.83437 71.9231 8.39497 72.1191 7.90202 72.246C7.40907 72.3626 6.9 72.4207 6.3749 72.4207H2.43652V60.7381H5.90872ZM6.182 65.5159C6.6428 65.5159 6.98037 65.3785 7.19472 65.1032C7.41977 64.8279 7.5323 64.5159 7.5323 64.1667C7.5323 63.7644 7.393 63.4628 7.11435 63.2619C6.84645 63.061 6.48205 62.9603 6.02125 62.9603H4.7674V65.5159H6.182ZM6.26237 70.2778C6.60532 70.2778 6.91607 70.2356 7.19472 70.1508C7.47337 70.0556 7.69305 69.9127 7.8538 69.7222C8.01455 69.5213 8.09492 69.2723 8.09492 68.9762C8.09492 68.6374 7.99847 68.3835 7.80557 68.2143C7.61267 68.0342 7.36085 67.9127 7.05005 67.8492C6.75 67.7753 6.43382 67.7381 6.10162 67.7381H4.7674V70.2778H6.26237ZM12.8445 60.7381H15.1754V72.4207H12.8445V60.7381ZM20.592 64.8968L20.5277 65.4841L20.8813 65.0397L24.7393 60.7381H27.7614L22.8746 65.9762L27.7775 72.4207H24.8197L21.1707 67.4365L20.592 68.008V72.4207H18.229V60.7381H20.592V64.8968ZM29.5474 60.7381H37.6171V62.9603H31.8783V65.4524H36.958V67.6746H31.8783V70.1984H37.8421V72.4207H29.5474V60.7381ZM43.8383 60.7381C44.5778 60.7381 45.2369 60.8334 45.8156 61.0238C46.3943 61.2039 46.8765 61.4683 47.2623 61.8175C47.6588 62.1563 47.9589 62.569 48.1625 63.0556C48.3661 63.5318 48.4679 64.0714 48.4679 64.6746C48.4679 65.1508 48.3929 65.627 48.2429 66.1032C48.1035 66.5794 47.8678 67.0134 47.5356 67.4048C47.2141 67.7961 46.7854 68.1136 46.2496 68.3572C45.7137 68.5898 45.0493 68.7064 44.2563 68.7064H42.5845V72.4207H40.2536V60.7381H43.8383ZM44.2402 66.4841C44.5939 66.4841 44.8885 66.4261 45.1243 66.3095C45.3601 66.193 45.5423 66.0452 45.6709 65.8651C45.8102 65.685 45.9066 65.5 45.9602 65.3095C46.0245 65.1087 46.0567 64.9231 46.0567 64.754C46.0567 64.627 46.0352 64.4683 45.9924 64.2778C45.9602 64.0769 45.8852 63.8755 45.7673 63.6746C45.6494 63.4737 45.4672 63.3041 45.2208 63.1667C44.985 63.0293 44.6635 62.9603 44.2563 62.9603H42.5845V66.4841H44.2402ZM46.4264 67.9127L49.3521 72.4207H46.6354L43.6454 67.9762L46.4264 67.9127ZM57.5914 63.5635C57.1413 63.32 56.6801 63.1191 56.2089 62.9603C55.7478 62.8016 55.3137 62.7222 54.9068 62.7222C54.403 62.7222 54.0066 62.8229 53.7173 63.0238C53.4279 63.2247 53.2833 63.5263 53.2833 63.9286C53.2833 64.2039 53.3903 64.4524 53.6048 64.6746C53.8298 64.8864 54.1136 65.0769 54.4567 65.246C54.8104 65.4152 55.1746 65.569 55.5498 65.7064C55.8924 65.8334 56.23 65.9866 56.5626 66.1667C56.9052 66.3358 57.2106 66.5531 57.4788 66.8175C57.7466 67.0714 57.9611 67.3944 58.1218 67.7857C58.2826 68.1667 58.363 68.6374 58.363 69.1984C58.363 69.7912 58.2072 70.3413 57.8968 70.8492C57.5858 71.3572 57.1302 71.7699 56.5304 72.0873C55.9301 72.3944 55.1907 72.5476 54.3121 72.5476C53.862 72.5476 53.4008 72.5055 52.9296 72.4207C52.4685 72.3254 52.0133 72.188 51.5632 72.008C51.113 71.8175 50.679 71.5794 50.2611 71.2937L51.29 69.5C51.5683 69.7009 51.8687 69.881 52.1902 70.0397C52.5222 70.188 52.8543 70.3041 53.1868 70.3889C53.5189 70.4737 53.8243 70.5159 54.1031 70.5159C54.3814 70.5159 54.6602 70.4787 54.939 70.4048C55.2283 70.32 55.4639 70.1826 55.6463 69.9921C55.8392 69.8016 55.9356 69.5372 55.9356 69.1984C55.9356 68.9658 55.8553 68.754 55.6945 68.5635C55.5443 68.373 55.3353 68.1984 55.0676 68.0397C54.8104 67.881 54.5261 67.7436 54.2156 67.627C53.8509 67.4896 53.4762 67.3309 53.0904 67.1508C52.7046 66.9708 52.3399 66.754 51.9973 66.5C51.6647 66.2356 51.3914 65.9127 51.1774 65.5318C50.9737 65.1404 50.8719 64.6642 50.8719 64.1032C50.8719 63.4261 51.0219 62.8388 51.3221 62.3413C51.6326 61.8438 52.0666 61.4524 52.6242 61.1667C53.1813 60.8706 53.8243 60.7064 54.5532 60.6746C55.5066 60.6746 56.2782 60.7857 56.868 61.008C57.4678 61.2302 58.0038 61.4946 58.4755 61.8016L57.5914 63.5635Z" fill="#F1F1F1"/>
<path d="M77.117 71.4524C76.9884 71.558 76.7473 71.7009 76.3937 71.8809C76.0506 72.061 75.6276 72.2197 75.1237 72.3571C74.6199 72.4945 74.0628 72.558 73.4519 72.5476C72.5196 72.5263 71.6837 72.3626 70.9442 72.0555C70.2153 71.7381 69.5939 71.3095 69.0795 70.7698C68.5757 70.2301 68.1899 69.6111 67.9221 68.9127C67.6544 68.2143 67.5203 67.4682 67.5203 66.6746C67.5203 65.7857 67.6544 64.9707 67.9221 64.2301C68.2009 63.4896 68.5918 62.8492 69.0956 62.3095C69.61 61.7698 70.2209 61.3517 70.9282 61.0555C71.6355 60.7594 72.4176 60.6111 73.2751 60.6111C74.0683 60.6111 74.7701 60.7167 75.3809 60.9285C75.9918 61.1403 76.4901 61.3675 76.8759 61.6111L75.9596 63.7857C75.6919 63.5848 75.3327 63.3784 74.8826 63.1666C74.4431 62.9444 73.9342 62.8333 73.3555 62.8333C72.9054 62.8333 72.4714 62.9285 72.0534 63.119C71.646 63.2991 71.2818 63.558 70.9603 63.8968C70.6494 64.2356 70.4032 64.6324 70.2209 65.0873C70.0385 65.5317 69.9476 66.0183 69.9476 66.5476C69.9476 67.1086 70.028 67.6215 70.1887 68.0873C70.36 68.5531 70.6011 68.9548 70.9121 69.2936C71.223 69.6215 71.5928 69.8755 72.0213 70.0555C72.4608 70.2356 72.9536 70.3254 73.5002 70.3254C74.1326 70.3254 74.6736 70.2247 75.1237 70.0238C75.5738 69.8229 75.9169 69.6111 76.1525 69.3889L77.117 71.4524ZM79.4524 60.7381H81.7833V70.1984H87.3453V72.4206H79.4524V60.7381ZM91.8402 68.1031C91.8402 68.4737 91.9528 68.8278 92.1778 69.1666C92.4029 69.5054 92.6972 69.7802 93.0619 69.992C93.4367 70.2038 93.8441 70.3095 94.2836 70.3095C94.7659 70.3095 95.1944 70.2038 95.5696 69.992C95.9444 69.7802 96.2393 69.5054 96.4538 69.1666C96.6788 68.8278 96.7913 68.4737 96.7913 68.1031V60.7381H99.0901V68.1508C99.0901 69.0079 98.8755 69.7698 98.447 70.4365C98.018 71.0927 97.4393 71.6111 96.7104 71.992C95.982 72.3626 95.1728 72.5476 94.2836 72.5476C93.4045 72.5476 92.6008 72.3626 91.8724 71.992C91.154 71.6111 90.5809 71.0927 90.1524 70.4365C89.7234 69.7698 89.5094 69.0079 89.5094 68.1508V60.7381H91.8402V68.1031ZM105.373 60.7381C106.605 60.7381 107.586 60.9866 108.315 61.4841C109.043 61.9707 109.408 62.7009 109.408 63.6746C109.408 64.3943 109.225 64.9975 108.861 65.4841C108.507 65.9603 108.02 66.3199 107.398 66.5635C106.787 66.7961 106.086 66.9127 105.292 66.9127L104.923 65.6746C105.898 65.6746 106.761 65.807 107.511 66.0714C108.272 66.3358 108.872 66.7167 109.311 67.2143C109.751 67.7009 109.97 68.2882 109.97 68.9762C109.97 69.6111 109.852 70.1508 109.617 70.5952C109.392 71.0292 109.081 71.3834 108.684 71.6587C108.299 71.9231 107.859 72.119 107.366 72.246C106.873 72.3626 106.364 72.4206 105.839 72.4206H101.901V60.7381H105.373ZM105.646 65.5158C106.107 65.5158 106.444 65.3784 106.659 65.1031C106.884 64.8278 106.996 64.5158 106.996 64.1666C106.996 63.7644 106.857 63.4628 106.578 63.2619C106.311 63.061 105.946 62.9603 105.485 62.9603H104.232V65.5158H105.646ZM105.727 70.2777C106.07 70.2777 106.38 70.2356 106.659 70.1508C106.938 70.0555 107.157 69.9127 107.318 69.7222C107.479 69.5213 107.559 69.2723 107.559 68.9762C107.559 68.6374 107.463 68.3834 107.27 68.2143C107.077 68.0342 106.825 67.9127 106.514 67.8492C106.214 67.7753 105.898 67.7381 105.566 67.7381H104.232V70.2777H105.727Z" fill="#F1F1F1"/>
</g>
<defs>
<clipPath id="clip0_5_247">
<rect width="110.516" height="76.3889" fill="white" transform="translate(0.909424)"/>
</clipPath>
</defs>
</svg>
